<?xml version="1.0" encoding="UTF-8"?>
<svg id="Logo" xmlns="http://www.w3.org/2000/svg" viewBox="0 0 1532.9 344.5">
  <defs>
    <style>
      .cls-1 {
        fill: #0058ea;
      }
    </style>
  </defs>
  <path id="Path_1132" data-name="Path 1132" class="cls-1" d="M1308.97,85.97l-.59-.59c-36.42-36.12-95.21-35.95-131.42.39-17.76,17.4-27.62,41.31-27.29,66.17-.27,24.84,9.55,48.72,27.22,66.18,16.86,17.74,40.26,27.79,64.73,27.82.46,0,.91,0,1.36-.01,24.8.28,48.61-9.7,65.79-27.58,17.84-17.43,27.77-41.4,27.46-66.34.28-24.81-9.56-48.65-27.27-66.03M1242.95,206.11c-29.28,0-53.01-24.15-53.01-53.94s23.73-53.94,53.01-53.94,53.01,24.15,53.01,53.94-23.73,53.94-53.01,53.94"/>
  <path id="Path_1133" data-name="Path 1133" class="cls-1" d="M828.25,85.97l-.59-.59c-36.42-36.12-95.21-35.95-131.42.39-17.76,17.4-27.62,41.31-27.29,66.17-.27,24.84,9.56,48.72,27.22,66.18,16.86,17.74,40.26,27.79,64.73,27.82.45,0,.91,0,1.36-.01,24.8.28,48.61-9.7,65.79-27.58,17.84-17.43,27.77-41.4,27.46-66.34.28-24.81-9.56-48.65-27.27-66.03M762.23,206.11c-29.28,0-53.01-24.15-53.01-53.94s23.73-53.94,53.01-53.94,53.01,24.15,53.01,53.94-23.73,53.94-53.01,53.94"/>
  <path id="Path_1135" data-name="Path 1135" class="cls-1" d="M1107.38,85.97l-.59-.59c-36.42-36.12-95.21-35.95-131.42.39-17.76,17.4-27.62,41.31-27.29,66.17-.27,24.84,9.56,48.72,27.22,66.18,16.86,17.74,40.26,27.79,64.73,27.82.45,0,.91,0,1.36-.01,24.8.28,48.61-9.7,65.79-27.58,17.84-17.43,27.77-41.4,27.46-66.34.28-24.81-9.56-48.65-27.27-66.03M1041.37,206.11c-29.28,0-53.01-24.15-53.01-53.94s23.73-53.94,53.01-53.94,53.01,24.15,53.01,53.94-23.73,53.94-53.01,53.94"/>
  <path id="Path_1136" data-name="Path 1136" class="cls-1" d="M413.76,85.97l-.59-.59c-36.42-36.12-95.21-35.95-131.42.39-17.76,17.4-27.62,41.31-27.29,66.17-.27,24.84,9.56,48.72,27.22,66.18,16.86,17.74,40.26,27.79,64.73,27.82.45,0,.91,0,1.36-.01,24.8.28,48.61-9.7,65.79-27.58,17.84-17.43,27.77-41.4,27.46-66.34.28-24.81-9.56-48.65-27.27-66.03M347.74,206.11c-29.28,0-53.01-24.15-53.01-53.94s23.73-53.94,53.01-53.94,53.01,24.15,53.01,53.94-23.73,53.94-53.01,53.94"/>
  <path id="Path_1139" data-name="Path 1139" class="cls-1" d="M550.81,342.5c-21.66-.02-41.96-7.3-58.26-19.81s-28.59-30.23-34.21-51.15c-.27-1.02-.11-2.06.38-2.9s1.3-1.51,2.32-1.78c.16-.04.32-.08.49-.1s.33-.03.5-.03h35.55c.76,0,1.48.23,2.09.63s1.1.97,1.41,1.67c2.72,6.07,6.51,11.53,11.12,16.17,4.62,4.64,10.06,8.44,16.12,11.2,3.52,1.61,7.19,2.83,10.95,3.65s7.61,1.23,11.47,1.23c3.22-.01,6.42-.29,9.58-.83s6.28-1.33,9.32-2.38c9.63-3.27,18.44-10.47,24.88-19.47,6.45-9,10.53-19.78,10.72-30.21l.11-15.98-.74.49-.74.49c-21.95,14.59-47.74,18.9-71.69,14.08-23.95-4.82-46.06-18.79-60.65-40.74-14.59-21.95-18.9-47.74-14.08-71.69,4.82-23.95,18.79-46.06,40.74-60.65,21.95-14.59,47.74-18.9,71.69-14.08s46.06,18.79,60.65,40.74c5.2,7.83,9.19,16.34,11.88,25.24,2.69,8.9,4.08,18.2,4.08,27.6v94.51c-.45,26.1-11.31,49.62-28.59,66.62-17.28,17-40.97,27.47-67.08,27.49M551.01,99.55c-15,0-28.58,6.08-38.42,15.91-9.83,9.83-15.91,23.41-15.91,38.42s6.08,28.58,15.91,38.42c9.83,9.83,23.41,15.91,38.42,15.91s28.58-6.08,38.42-15.91c9.83-9.83,15.91-23.41,15.91-38.42h0c-.02-14.99-6.1-28.57-15.93-38.39-9.83-9.83-23.4-15.91-38.4-15.93"/>
  <path class="cls-1" d="M233.91,110.67c-23.06,0-50.54,0-73.6,0-1.97-.03-3.68,1.67-3.65,3.65,0,0,0,7.75,0,7.75v7.75s0,7.75,0,7.75v7.75c-.03,1.97,1.67,3.68,3.65,3.65,10.42,0,22.85,0,33.27,0-5.74,22.2-21.69,41.14-43.19,49.32h0c-60.23,21.79-113.99-28.88-102.66-90.39,9.57-55.29,73.79-82.23,119.21-48.88,2.75,2.11,5.35,4.41,7.77,6.89,2.68,2.58,4.82,6.63,9.07,6.45,5.04.02,15.28-.01,20.33,0,5.03.02,15.29-.01,20.33,0,2.67.07,4.51-2.99,3.24-5.33-2.29-4.51-4.85-8.85-7.67-13.02C188.62,6.81,128.64-10.63,76.51,10.99,6.26,40.71-20.11,127.99,21.98,191.6c31.9,48.33,92.51,67.11,146.18,45.83,43.52-17.67,70.6-63.57,69.39-110.12-.02-2.9.02-6.85,0-9.75.11-2.89.3-6.78-3.65-6.9Z"/>
  <path class="cls-1" d="M919.7,243.44h-35.73c-1.01,0-1.92-.41-2.58-1.07s-1.07-1.57-1.07-2.58V8.33c0-1.01.41-1.92,1.07-2.58s1.57-1.07,2.58-1.07h35.73c1.01,0,1.92.41,2.58,1.07s1.07,1.57,1.07,2.58v231.46c0,1.01-.41,1.92-1.07,2.58s-1.57,1.07-2.58,1.07Z"/>
  <path class="cls-1" d="M1454.93,144.91l36.06-38.61,36.06-38.61c1.09-1.17,1.22-2.7.68-3.94s-1.75-2.19-3.34-2.19h-40.48c-1.02,0-2.01.21-2.93.61s-1.74.99-2.43,1.74l-36.94,40.05-36.94,40.05V8.34c0-1.01-.41-1.92-1.07-2.58-.66-.66-1.57-1.07-2.58-1.07h-35.73c-1.01,0-1.92.41-2.58,1.07s-1.07,1.57-1.07,2.58v231.46c0,1.01.41,1.92,1.07,2.58s1.57,1.07,2.58,1.07h35.73c1.01,0,1.92-.41,2.58-1.07s1.07-1.57,1.07-2.58v-40.89h0l11.77-12.56,11.77-12.56,26.42,33.44,26.42,33.44c.69.88,1.56,1.57,2.54,2.04s2.06.73,3.18.73h40.46c1.53,0,2.73-.89,3.29-2.08s.51-2.67-.46-3.87l-37.57-46.29-37.57-46.29Z"/>
</svg>